<?xml version="1.0" encoding="utf-8"?>
<!-- Generator: Adobe Illustrator 21.0.0, SVG Export Plug-In . SVG Version: 6.00 Build 0)  -->
<svg version="1.1" id="Layer_1" xmlns="http://www.w3.org/2000/svg" xmlns:xlink="http://www.w3.org/1999/xlink" x="0px" y="0px"
	 viewBox="0 0 512 512" style="enable-background:new 0 0 512 512;" xml:space="preserve">
<style type="text/css">
	.st0{fill:#FFFFFF;}
</style>
<g>
	<g>
		<path class="st0" d="M483.8,193.9h-46.5c1.1-3.9,1.7-8.1,1.7-12.3c0-22.9-16.9-41.9-38.9-45.2c-0.5-7.6-3.7-14.9-9.3-20.5
			c-6.1-6.1-14.1-9.4-22.7-9.4c-4,0-8,0.7-11.8,2.2c-1.9,0.8-3.5,2.3-4.2,4.2c-4.7,11.9-1.9,25.4,7.2,34.4c0.6,0.6,1.2,1.2,1.9,1.7
			c-8.5,8.5-13.5,20.1-13.5,32.4c0,4.3,0.6,8.4,1.7,12.3h-62V64.1c0-19.1-15.5-34.6-34.6-34.6H125c-19.1,0-34.6,15.5-34.6,34.6
			v129.8H28.2c-4.2,0-7.5,3.4-7.5,7.5v47.3c0,4.2,3.4,7.5,7.5,7.5h8.4v153.4c0,4.2,3.4,7.5,7.5,7.5h13.4v57.7c0,4.2,3.4,7.5,7.5,7.5
			h39.3c4.2,0,7.5-3.4,7.5-7.5v-57.7h288.2v57.7c0,4.2,3.4,7.5,7.5,7.5H447c4.2,0,7.5-3.4,7.5-7.5v-57.7h13.4c4.2,0,7.5-3.4,7.5-7.5
			V256.2h8.4c4.2,0,7.5-3.4,7.5-7.5v-47.3C491.3,197.3,488,193.9,483.8,193.9z M365.2,121.8c1-0.2,2-0.3,2.9-0.3
			c4.6,0,8.8,1.8,12.1,5c4,4,5.7,9.6,4.7,15c-0.1,0-0.2,0-0.3,0c-0.3,0-0.6,0.1-0.9,0.1c-0.2,0-0.4,0-0.7,0.1c-0.2,0-0.3,0-0.5,0
			c-0.4,0-0.8,0-1.2,0c-0.2,0-0.4,0-0.6,0c-0.9-0.1-1.9-0.2-2.8-0.4c0,0-0.1,0-0.1,0c-0.3-0.1-0.6-0.2-0.9-0.2c-0.1,0-0.1,0-0.2,0
			c-2.6-0.8-4.9-2.2-6.9-4.2C366,132.8,364.2,127.2,365.2,121.8z M376.1,156.3c1.9,0.4,3.9,0.6,5.9,0.6c0,0,0,0,0,0
			c4,0,8-0.7,11.8-2.2c0.4-0.1,0.7-0.3,1.1-0.5c0.1,0,0.1-0.1,0.2-0.1c0.3-0.2,0.6-0.4,0.9-0.7c0.1,0,0.1-0.1,0.2-0.1
			c0.3-0.3,0.6-0.5,0.8-0.8c0,0,0,0,0-0.1c0.2-0.3,0.4-0.6,0.6-0.9c0,0,0-0.1,0.1-0.1c14.9,2.1,26.4,14.9,26.4,30.4
			c0,6.3-1.9,12.2-5.2,17.1c0,0,0,0,0,0.1c-4.6,6.8-11.8,11.6-20.2,13.1c-0.3,0-0.5,0.1-0.8,0.1c-0.3,0-0.6,0.1-0.8,0.1
			c-0.4,0-0.7,0.1-1.1,0.1c-0.2,0-0.4,0-0.7,0.1c-0.6,0-1.2,0.1-1.8,0.1c-0.6,0-1.2,0-1.8-0.1c-0.2,0-0.4,0-0.7-0.1
			c-0.4,0-0.7-0.1-1.1-0.1c-0.3,0-0.6-0.1-0.8-0.1c-0.3,0-0.5-0.1-0.8-0.1c-8.4-1.4-15.6-6.3-20.2-13.1c0,0,0,0,0-0.1
			c-3.3-4.9-5.2-10.8-5.2-17.1C362.7,171.4,367.8,162,376.1,156.3z M105.4,64.1c0-10.8,8.8-19.5,19.5-19.5h127.8
			c10.8,0,19.5,8.8,19.5,19.5v129.8H105.4V64.1z M72.5,467.4v-50.2h24.3v50.2H72.5z M439.5,467.4h-24.3v-50.2h24.3V467.4z
			 M447,402.1h-39.3H104.4H65H51.6V256.2h408.7v145.9H447z M467.9,241.2H44.1h-8.4V209h62.2h181.9h76.9c6.7,9,16.3,15.1,27.2,17.3
			c0.1,0,0.3,0.1,0.4,0.1c0.6,0.1,1.1,0.2,1.7,0.3c0.3,0,0.6,0.1,0.9,0.1c0.5,0.1,0.9,0.1,1.4,0.2c0.5,0.1,0.9,0.1,1.4,0.1
			c0.3,0,0.7,0.1,1,0.1c0.8,0,1.7,0.1,2.5,0.1c0.8,0,1.7,0,2.5-0.1c0.3,0,0.7-0.1,1-0.1c0.5,0,0.9-0.1,1.4-0.1
			c0.5-0.1,0.9-0.1,1.4-0.2c0.3,0,0.6-0.1,0.9-0.1c0.6-0.1,1.1-0.2,1.7-0.3c0.1,0,0.3-0.1,0.4-0.1c10.8-2.2,20.5-8.3,27.2-17.3h46.4
			v32.2L467.9,241.2L467.9,241.2z"/>
	</g>
</g>
</svg>
