<?xml version="1.0" encoding="utf-8"?>
<!-- Generator: Adobe Illustrator 21.0.0, SVG Export Plug-In . SVG Version: 6.00 Build 0)  -->
<svg version="1.1" xmlns="http://www.w3.org/2000/svg" xmlns:xlink="http://www.w3.org/1999/xlink" x="0px" y="0px"
	 viewBox="0 0 336.7 118.7" style="enable-background:new 0 0 336.7 118.7;" xml:space="preserve">
<g id="blanc">
</g>
<g id="noir">
	<g>
		<path d="M54.4,111.2l-0.2,0c-0.4-0.1-42.6-8.7-42.6-42.8l0-16c0-23.5,19.2-42.7,42.8-42.7c23.6,0,42.8,19.2,42.8,42.8v15.9
			c0,34.1-42.2,42.7-42.6,42.8L54.4,111.2z M54.4,12C32.1,12,14,30.1,14,52.4l0,0.5l0,15.5c0,30.9,37.2,39.7,40.5,40.4
			c3.3-0.7,40.5-9.6,40.5-40.4V52.4C94.8,30.1,76.7,12,54.4,12z"/>
	</g>
	<polygon points="16,53.1 16,56.2 19.1,53.1 	"/>
	<polygon points="23.8,53.1 16,60.9 16,64.3 27.2,53.1 	"/>
	<path d="M29.4,53.1L16,66.5v1.6c0,0.6,0,1.1,0.1,1.7l16.7-16.7H29.4z"/>
	<path d="M35.2,53.1l-19,19c0.1,1,0.3,2,0.5,2.9l21.9-21.9H35.2z"/>
	<polygon points="53.5,37.9 50.1,37.9 48.8,39.2 48.8,42.5 	"/>
	<polygon points="48.8,48.3 59.2,37.9 55.9,37.9 48.8,45 	"/>
	<path d="M41,53.1L17.1,76.9c0.2,0.9,0.5,1.7,0.8,2.6l26.4-26.4H41z"/>
	<polygon points="53.9,48.8 59.7,43 59.7,39.6 50.5,48.8 	"/>
	<path d="M49,53.1h-2.4l-28,28c0.3,0.8,0.7,1.5,1.1,2.3l29-29L49,53.1z"/>
	<polygon points="59.7,48.8 59.7,48.8 59.7,45.4 56.3,48.8 	"/>
	<polygon points="52.3,53.1 51.4,54 50.3,58.5 53.2,55.6 53.2,53.1 	"/>
	<path d="M47.9,57.5L20.5,84.9c0.4,0.7,0.9,1.4,1.3,2l25-25L47.9,57.5z"/>
	<path d="M46,65.2L22.9,88.3c0.5,0.6,1,1.3,1.5,1.8l20.5-20.5L46,65.2z"/>
	<polygon points="58.1,56.5 57.4,53.8 55.8,55.4 55.8,58.8 	"/>
	<polygon points="60.2,54.4 61.5,53.1 59.9,53.1 	"/>
	<polygon points="48.4,66.1 53.2,61.4 53.2,58 49.5,61.7 	"/>
	<polygon points="59.2,61.2 58.6,58.5 55.8,61.3 55.8,64.7 	"/>
	<polygon points="49.2,70.8 51.3,68.7 52.1,68.3 53.2,67.2 53.2,63.9 51.3,65.8 51.1,65.1 50.2,66 49.6,67.4 47.6,69.4 46.5,73.9 
		48.5,71.9 	"/>
	<path d="M44.1,72.9L25.6,91.4c0.6,0.6,1.1,1.1,1.7,1.7L43,77.4L44.1,72.9z"/>
	<polygon points="61.3,59.1 67.4,53.1 64,53.1 60.7,56.4 	"/>
	<polygon points="53.2,69.7 45.7,77.2 44.6,81.7 53.2,73.1 	"/>
	<path d="M42.2,80.7L28.6,94.3c0.6,0.5,1.2,1,1.9,1.5l10.6-10.6L42.2,80.7z"/>
	<polygon points="55.8,70.5 57.2,69.1 57.2,66.4 58.5,65 59.2,67.1 60.4,65.9 59.7,63.2 55.8,67.1 	"/>
	<polygon points="62.5,63.8 73.2,53.1 69.8,53.1 61.8,61.1 	"/>
	<polygon points="63.6,68.3 78.8,53.1 75.4,53.1 62.9,65.6 	"/>
	<path d="M39.4,92l1-3.9l-8.6,8.6c0.7,0.5,1.3,0.9,2,1.4l6-6H39.4z"/>
	<polygon points="43.9,84.6 42.8,89.1 53.2,78.7 53.2,75.3 	"/>
	<polygon points="60.8,67.7 59.9,68.6 59.6,69.4 58.1,70.9 57.7,70.8 55.8,72.7 55.8,76.1 61.4,70.4 	"/>
	<polygon points="62,72.6 55.8,78.9 55.8,82.2 62.6,75.4 	"/>
	<path d="M53.2,81.4L35.5,99.1c0.7,0.4,1.4,0.8,2.2,1.2l15.5-15.5V81.4z"/>
	<polygon points="64.8,73.2 84.9,53.1 81.6,53.1 64.1,70.5 	"/>
	<path d="M53.2,89.5v-2.1l-13.8,13.8c0.8,0.4,1.5,0.7,2.3,1.1l12.8-12.8H53.2z"/>
	<polygon points="55.8,84.9 55.8,88.2 63.8,80.2 63.1,77.5 	"/>
	<polygon points="65.9,78.1 90.9,53.1 87.6,53.1 65.3,75.3 	"/>
	<polygon points="67.1,83 92.8,57.3 92.8,53.9 66.5,80.2 	"/>
	<path d="M64.3,82.4l-20.7,20.7c0.8,0.3,1.7,0.7,2.4,0.9l19-18.9L64.3,82.4z"/>
	<path d="M65.5,87.2L48,104.7c0.9,0.3,1.8,0.6,2.6,0.8l15.6-15.6L65.5,87.2z"/>
	<polygon points="68.3,87.8 92.8,63.2 92.8,59.9 67.6,85.1 	"/>
	<path d="M92.8,68.1V66l-24,24l0.5,2h-2.5l-14.1,14.1c1.1,0.3,1.7,0.4,1.7,0.4s0.6-0.1,1.7-0.4l36.7-36.7
		C92.8,69,92.8,68.5,92.8,68.1z"/>
	<path d="M78.7,89.4c2.7-2.7,5.3-5.8,6.5-7c1.1-1.1,3.7-3.6,6.7-6.5c0.3-1.1,0.5-2.3,0.6-3.6L59.9,105c1.4-0.4,2.9-1,4.6-1.6
		c4.9-5,8-8,8.2-8.2C73.9,93.9,76.3,91.9,78.7,89.4z"/>
	<path d="M90.1,81.3l-18.9,18.9C78.4,96.4,86.1,90.4,90.1,81.3z"/>
	<path d="M90.4,55.5v12.6c0,11.9-6,21.5-17.9,28.6c-8,4.8-16.1,6.8-18.1,7.3c-2-0.5-10.1-2.5-18.1-7.3C24.4,89.6,18.4,80,18.4,68.1
		V55.5h27.4l-8.8,35.9l-0.7,3l3.1,0l2.6,0l1.5-0.7l0.8-1.2l6.3-27v23.8v2.4h2.5h2.6h2.5v-2.4V65.7l6.1,27l0.5,1.9h1.9h2.6h3.1
		l-0.7-3L63,55.5H90.4 M92.8,53.1H59.9l9.4,39h-2.6l-9.4-39l-1.5,0v36.4h-2.6V53.1l-1.6,0l-9.5,39l-2.6,0l9.5-39H16v15
		c0,30.9,38.4,38.4,38.4,38.4S92.8,99,92.8,68.1V53.1L92.8,53.1z"/>
	<g>
		<path d="M61.1,50.2H47.7V36.8h13.4V50.2z M50.2,47.7h8.5v-8.5h-8.5V47.7z"/>
	</g>
	<g>
		<g>
			<path d="M108,31.3c0-5.2,2.7-8.1,7.7-8.1c5,0,7.7,3,7.7,8.1v16.8c0,5.2-2.7,8.1-7.7,8.1c-5,0-7.7-3-7.7-8.1V31.3z M113,48.4
				c0,2.3,1,3.2,2.6,3.2c1.6,0,2.6-0.9,2.6-3.2V31c0-2.3-1-3.2-2.6-3.2c-1.6,0-2.6,0.9-2.6,3.2V48.4z"/>
			<path d="M137.8,55.9c-0.3-0.8-0.5-1.3-0.5-4v-5.1c0-3-1-4.1-3.3-4.1h-1.8v13.2h-5.1V23.5h7.7c5.3,0,7.5,2.4,7.5,7.4v2.5
				c0,3.3-1.1,5.5-3.3,6.6c2.5,1.1,3.4,3.5,3.4,6.9v5c0,1.6,0,2.7,0.6,3.9H137.8z M132.2,28.1v9.9h2c1.9,0,3-0.8,3-3.4v-3.2
				c0-2.3-0.8-3.3-2.6-3.3H132.2z"/>
			<path d="M146.2,23.5h8c5.1,0,7.6,2.8,7.6,8v16.4c0,5.2-2.5,8-7.6,8h-8V23.5z M151.3,28.1v23.1h2.9c1.6,0,2.6-0.8,2.6-3.1V31.3
				c0-2.3-1-3.1-2.6-3.1H151.3z"/>
			<path d="M176.1,55.9c-0.3-0.8-0.5-1.3-0.5-4v-5.1c0-3-1-4.1-3.3-4.1h-1.8v13.2h-5.1V23.5h7.7c5.3,0,7.5,2.4,7.5,7.4v2.5
				c0,3.3-1.1,5.5-3.3,6.6c2.5,1.1,3.4,3.5,3.4,6.9v5c0,1.6,0,2.7,0.6,3.9H176.1z M170.6,28.1v9.9h2c1.9,0,3.1-0.8,3.1-3.4v-3.2
				c0-2.3-0.8-3.3-2.6-3.3H170.6z"/>
			<path d="M189.6,37.2h7v4.6h-7v9.5h8.8v4.6h-13.9V23.5h13.9v4.6h-8.8V37.2z"/>
			<path d="M217.3,49.9l3.9-26.4h4.7l-5,32.3h-7.6l-5-32.3h5.1L217.3,49.9z"/>
			<path d="M244,55.9h-5.1l-0.9-5.9h-6.2l-0.9,5.9h-4.7l5.2-32.3h7.4L244,55.9z M232.4,45.6h4.9l-2.4-16.4L232.4,45.6z"/>
			<path d="M251.6,23.5v25c0,2.3,1,3.1,2.6,3.1c1.6,0,2.6-0.8,2.6-3.1v-25h4.8v24.6c0,5.2-2.6,8.1-7.6,8.1c-5,0-7.6-3-7.6-8.1V23.5
				H251.6z"/>
			<path d="M265.6,23.5h8c5.1,0,7.6,2.8,7.6,8v16.4c0,5.2-2.5,8-7.6,8h-8V23.5z M270.7,28.1v23.1h2.9c1.6,0,2.6-0.8,2.6-3.1V31.3
				c0-2.3-1-3.1-2.6-3.1H270.7z"/>
			<path d="M284.5,31.3c0-5.2,2.7-8.1,7.7-8.1c5,0,7.7,3,7.7,8.1v16.8c0,5.2-2.7,8.1-7.7,8.1c-5,0-7.7-3-7.7-8.1V31.3z M289.6,48.4
				c0,2.3,1,3.2,2.6,3.2c1.6,0,2.6-0.9,2.6-3.2V31c0-2.3-1-3.2-2.6-3.2c-1.6,0-2.6,0.9-2.6,3.2V48.4z"/>
			<path d="M303.7,23.5h5.1v32.3h-5.1V23.5z"/>
			<path d="M319.8,23.2c4.9,0,7.5,3,7.5,8.1v1h-4.8V31c0-2.3-0.9-3.2-2.5-3.2c-1.6,0-2.5,0.9-2.5,3.2c0,6.7,9.9,7.9,9.9,17.1
				c0,5.2-2.6,8.1-7.6,8.1c-5,0-7.6-3-7.6-8.1v-2h4.8v2.3c0,2.3,1,3.1,2.6,3.1c1.6,0,2.6-0.8,2.6-3.1c0-6.7-9.9-7.9-9.9-17.1
				C312.3,26.1,314.8,23.2,319.8,23.2z"/>
			<path d="M108.4,65.1h8.1c5.1,0,7.7,2.8,7.7,8.1v16.5c0,5.2-2.5,8.1-7.7,8.1h-8.1V65.1z M113.5,69.8v23.4h2.9
				c1.6,0,2.6-0.8,2.6-3.2V73c0-2.3-1-3.2-2.6-3.2H113.5z"/>
			<path d="M132.1,78.9h7.1v4.7h-7.1v9.6h8.9v4.7h-14V65.1h14v4.7h-8.9V78.9z"/>
			<path d="M150.6,64.7c5,0,7.6,3,7.6,8.2v1h-4.9v-1.4c0-2.3-0.9-3.2-2.6-3.2c-1.6,0-2.6,0.9-2.6,3.2c0,6.7,10,8,10,17.3
				c0,5.2-2.6,8.2-7.7,8.2c-5,0-7.7-3-7.7-8.2v-2h4.9v2.3c0,2.3,1,3.2,2.7,3.2s2.7-0.8,2.7-3.2c0-6.7-10-8-10-17.3
				C143,67.7,145.6,64.7,150.6,64.7z"/>
			<path d="M175.2,79.6h7.2V90c0,5.2-2.6,8.2-7.7,8.2c-5,0-7.7-3-7.7-8.2V73c0-5.2,2.6-8.2,7.7-8.2c5,0,7.7,3,7.7,8.2v3.2h-4.9v-3.5
				c0-2.3-1-3.2-2.7-3.2c-1.6,0-2.7,0.9-2.7,3.2v17.7c0,2.3,1,3.2,2.7,3.2c1.6,0,2.7-0.8,2.7-3.2v-6h-2.3V79.6z"/>
			<path d="M190.3,78.9h7.1v4.7h-7.1v9.6h8.9v4.7h-14V65.1h14v4.7h-8.9V78.9z"/>
			<path d="M201.5,73c0-5.2,2.8-8.2,7.8-8.2c5,0,7.8,3,7.8,8.2v17c0,5.2-2.8,8.2-7.8,8.2c-5,0-7.8-3-7.8-8.2V73z M206.6,90.3
				c0,2.3,1,3.2,2.7,3.2c1.6,0,2.7-0.9,2.7-3.2V72.6c0-2.3-1-3.2-2.7-3.2c-1.6,0-2.7,0.9-2.7,3.2V90.3z"/>
			<path d="M230.8,88.3l3.5-23.2h7.1v32.7h-4.9V74.4l-3.6,23.4h-4.9l-3.8-23.1v23.1h-4.5V65.1h7.1L230.8,88.3z"/>
			<path d="M249.9,78.9h7.1v4.7h-7.1v9.6h8.9v4.7h-14V65.1h14v4.7h-8.9V78.9z"/>
			<path d="M260,65.1h15.9v4.7h-5.4v28h-5.1v-28H260V65.1z"/>
			<path d="M288.4,97.8c-0.3-0.8-0.5-1.4-0.5-4v-5.1c0-3-1-4.2-3.4-4.2h-1.8v13.3h-5.1V65.1h7.8c5.3,0,7.6,2.5,7.6,7.5v2.6
				c0,3.4-1.1,5.6-3.4,6.6c2.6,1.1,3.4,3.5,3.4,7v5c0,1.6,0,2.8,0.6,4H288.4z M282.8,69.8v10h2c1.9,0,3.1-0.8,3.1-3.5v-3.2
				c0-2.3-0.8-3.4-2.6-3.4H282.8z"/>
			<path d="M301.1,78.9h7.1v4.7h-7.1v9.6h8.9v4.7h-14V65.1h14v4.7h-8.9V78.9z"/>
			<path d="M319.6,64.7c5,0,7.6,3,7.6,8.2v1h-4.9v-1.4c0-2.3-0.9-3.2-2.6-3.2c-1.6,0-2.6,0.9-2.6,3.2c0,6.7,10,8,10,17.3
				c0,5.2-2.6,8.2-7.7,8.2c-5,0-7.7-3-7.7-8.2v-2h4.9v2.3c0,2.3,1,3.2,2.7,3.2c1.6,0,2.7-0.8,2.7-3.2c0-6.7-10-8-10-17.3
				C312,67.7,314.6,64.7,319.6,64.7z"/>
		</g>
	</g>
</g>
</svg>
