<?xml version="1.0" encoding="utf-8"?>
<!-- Generator: Adobe Illustrator 21.0.0, SVG Export Plug-In . SVG Version: 6.00 Build 0)  -->
<svg version="1.1" id="Layer_1" xmlns="http://www.w3.org/2000/svg" xmlns:xlink="http://www.w3.org/1999/xlink" x="0px" y="0px"
	 viewBox="0 0 512 512" style="enable-background:new 0 0 512 512;" xml:space="preserve">
<style type="text/css">
	.st0{fill:#FFFFFF;}
</style>
<g>
	<g>
		<g>
			<path class="st0" d="M110.7,179.5H54.6c-4,0-7.2,3.2-7.2,7.2V222c0,4,3.2,7.2,7.2,7.2h56.1c4,0,7.2-3.2,7.2-7.2v-35.3
				C117.9,182.8,114.7,179.5,110.7,179.5z M103.5,214.8H61.8v-21h41.7L103.5,214.8L103.5,214.8z"/>
		</g>
	</g>
	<g>
		<g>
			<path class="st0" d="M110.7,272.1H54.6c-4,0-7.2,3.2-7.2,7.2v35.3c0,4,3.2,7.2,7.2,7.2h56.1c4,0,7.2-3.2,7.2-7.2v-35.3
				C117.9,275.3,114.7,272.1,110.7,272.1z M103.5,307.4H61.8v-21h41.7L103.5,307.4L103.5,307.4z"/>
		</g>
	</g>
	<g>
		<g>
			<path class="st0" d="M330.8,208.7H181.2c-4,0-7.2,3.2-7.2,7.2v35.3c0,4,3.2,7.2,7.2,7.2h149.6c4,0,7.2-3.2,7.2-7.2v-35.3
				C337.9,211.9,334.7,208.7,330.8,208.7z M213.1,244h-24.7v-21h24.7V244z M248.8,244h-21.4v-21h21.4V244z M284.6,244h-21.4v-21
				h21.4V244z M323.6,244h-24.7v-21h24.7V244z"/>
		</g>
	</g>
	<g>
		<g>
			<path class="st0" d="M457.4,179.5h-56.1c-4,0-7.2,3.2-7.2,7.2V222c0,4,3.2,7.2,7.2,7.2h56.1c4,0,7.2-3.2,7.2-7.2v-35.3
				C464.5,182.8,461.3,179.5,457.4,179.5z M450.2,214.8h-41.7v-21h41.7V214.8z"/>
		</g>
	</g>
	<g>
		<g>
			<path class="st0" d="M457.4,272.1h-56.1c-4,0-7.2,3.2-7.2,7.2v35.3c0,4,3.2,7.2,7.2,7.2h56.1c4,0,7.2-3.2,7.2-7.2v-35.3
				C464.5,275.3,461.3,272.1,457.4,272.1z M450.2,307.4h-41.7v-21h41.7V307.4z"/>
		</g>
	</g>
	<g>
		<g>
			<path class="st0" d="M483.4,118H375.3c-4,0-7.2,3.2-7.2,7.2v45.5h-30.2v-18.9c0-4-3.2-7.2-7.2-7.2h-67.1V124h76.7
				c4,0,7.2-3.2,7.2-7.2V67.9c0-4-3.2-7.2-7.2-7.2h-76.7c-0.2-3.7-3.3-6.7-7.1-6.7c-4,0-7.2,3.2-7.2,7.2v6.7v48.9v27.6h-68.1
				c-4,0-7.2,3.2-7.2,7.2v18.9h-30.2v-45.5c0-4-3.2-7.2-7.2-7.2H28.6c-4,0-7.2,3.2-7.2,7.2v325.6c0,4,3.2,7.2,7.2,7.2h108.1
				c0,0,0,0,0,0h248.1c0,0,0,0,0,0h98.6c4,0,7.2-3.2,7.2-7.2V125.1C490.6,121.2,487.4,118,483.4,118z M263.7,75.1h69.5v34.6h-69.5
				L263.7,75.1L263.7,75.1z M129.6,443.6H35.8V257.8h93.8V443.6z M129.6,177.7v65.7H35.8V132.3h93.8V177.7z M291.8,443.6h-71.6V432
				h71.6V443.6z M291.8,417.7h-71.6v-12.2h71.6V417.7z M291.8,391.2h-71.6v-68.5h71.6V391.2z M306.1,443.6V315.5
				c0-4-3.2-7.2-7.2-7.2h-85.9c-4,0-7.2,3.2-7.2,7.2v128.1h-62V184.9h37.3c4,0,7.2-3.2,7.2-7.2v-18.9h135.2v18.9
				c0,4,3.2,7.2,7.2,7.2h37.3v258.7L306.1,443.6L306.1,443.6z M476.2,443.6h-93.8V257.8h93.8L476.2,443.6L476.2,443.6z M476.2,243.5
				h-93.8V132.3h93.8L476.2,243.5L476.2,243.5z"/>
		</g>
	</g>
</g>
</svg>
