<?xml version="1.0" encoding="utf-8"?>
<!-- Generator: Adobe Illustrator 21.0.0, SVG Export Plug-In . SVG Version: 6.00 Build 0)  -->
<svg version="1.1" id="Layer_1" xmlns="http://www.w3.org/2000/svg" xmlns:xlink="http://www.w3.org/1999/xlink" x="0px" y="0px"
	 viewBox="0 0 512 512" style="enable-background:new 0 0 512 512;" xml:space="preserve">
<style type="text/css">
	.st0{fill:#FFFFFF;}
</style>
<g>
	<g>
		<g>
			<g>
				<circle class="st0" cx="100.3" cy="167.8" r="11.5"/>
			</g>
		</g>
		<g>
			<g>
				<circle class="st0" cx="183.9" cy="167.8" r="11.5"/>
			</g>
		</g>
		<g>
			<g>
				<path class="st0" d="M262.6,358.8c-0.7-10.3-2.6-20.4-7.5-30c-7.7-15.1-20.8-27.2-36.4-33.9c-15-6.4-30.2-6-46.2-6v-17.3
					c27.1-9.2,48.8-30.4,58.6-57.2c17.8-1.3,31.8-16.2,31.8-34.3c0-15.8-11.1-29.6-26-33.4v-11.2c0-6.9-0.8-13.8-2.2-20.5
					c0,0,0-0.2,0-0.2c-4.6-20.7-16.3-39.5-32.9-53c-16.8-13.6-38-21.2-59.7-21.2c-21.7,0-42.9,7.5-59.7,21.2
					c-16.6,13.4-28.3,32.3-32.9,53l0,0.2c-1.5,6.7-2.2,13.6-2.2,20.6v11.2c-15,3.8-26,17.5-26,33.4c0,18.1,14.1,33,31.8,34.3
					c9.9,26.8,31.5,48,58.6,57.2v17.3c-11.6,0-23.2-0.7-34.5,2.1c-13.5,3.3-26.1,10.4-35.7,20.5C28,325.4,20.6,344.8,21,364.1
					c0.3,14.2,0.1,28.4,0.1,42.6c0,1.1,0,2.2,0,3.3c0,3.2,2.6,5.9,5.9,5.9h41.7h146.9h41.7c3.2,0,5.9-2.6,5.9-5.9
					c0-9.3,0-18.5,0-27.8C263.1,374.3,263.2,366.5,262.6,358.8z M235,201.1c2.8-13.7,2-27.7,2-41.6c0,0,0-0.5,0-0.5
					c8.4,3.4,14.3,11.7,14.3,21.1c0,10.4-7,19.1-16.5,21.8C234.9,201.7,235,201.4,235,201.1z M32.9,180.1c0-9.4,5.9-17.7,14.3-21.1
					c0,14-0.9,28.3,2,42.1c0.1,0.3,0.1,0.5,0.2,0.8C39.8,199.2,32.9,190.4,32.9,180.1z M62.8,404.1H32.9v-42.1c0-0.9,0-1.9,0.1-2.8
					c0-0.2,0-0.4,0-0.6c0.1-0.9,0.1-1.9,0.2-2.8c0,0,0,0,0,0c0.1-1,0.2-1.9,0.4-2.9c0-0.1,0-0.2,0-0.3c2.8-18.4,13.9-34,29.2-43.2
					V404.1z M189.6,300.6l-30.9,43.3l-4.6-19.8l8-14c1.1-2,1-4.5-0.4-6.4l-2.3-3.2h7.3H189.6z M144.5,317.4h-4.7l-5.6-9.7l5.1-7h5.6
					l5.1,7L144.5,317.4z M149.7,356.6l-7.6,10.6l-5.6-7.8l-2-2.8l6.4-27.5h2.2L149.7,356.6z M147.9,288.9h-11.5h-13v-14.1
					c0.6,0.1,1.2,0.2,1.8,0.3c11.8,2.1,24,2,35.7-0.3v14.1H147.9z M89.7,70.9c14.7-12,33.3-18.5,52.4-18.5s37.6,6.6,52.4,18.5
					c13.9,11.3,23.9,26.9,28.3,44.1c0,0,0,0.1-0.1,0.1c-6.9,8.6-21.3,3.5-21.3-7.5c0-3.2-2.6-5.9-5.9-5.9s-5.9,2.6-5.9,5.9
					c0,6.6-5.4,12-12,12c-6.6,0-12-5.4-12-12c0-3.2-2.6-5.9-5.9-5.9c-3.2,0-5.9,2.6-5.9,5.9c0,4.1-2.1,7.8-5.3,9.9
					c-1.9,1.3-4.2,2-6.7,2c-5.4,0-9.9-3.5-11.4-8.4c-0.3-1.1-0.5-2.3-0.5-3.6c0-3.2-2.6-5.9-5.9-5.9c-3.2,0-5.9,2.6-5.9,5.9
					c0,6.6-5.4,12-12,12s-12-5.4-12-12c0-3.2-2.6-5.9-5.9-5.9c-3.2,0-5.9,2.6-5.9,5.9c0,1.2-0.2,2.4-0.5,3.6
					c-0.2,0.7-0.5,1.5-0.9,2.1c-0.6,1-1.2,1.9-2.1,2.8c-4.9,4.9-13.4,4.4-17.8-1c0,0,0-0.1-0.1-0.1C65.9,97.7,75.8,82.2,89.7,70.9z
					 M105.4,256.4c-20.8-10.3-36.6-29.4-43.2-51.5c-0.4-1.2-0.7-2.4-1-3.6c-3.9-16-2.4-33.3-2.4-49.6v-16.1c0-2.5,0.1-4.9,0.3-7.3
					c4.9,2.8,10.8,3.7,16.3,2.6c2.6-0.5,5.1-1.5,7.3-2.8c0.5-0.3,6.2-4.4,5.8-4.8c4.3,5,10.7,8.1,17.8,8.1s13.5-3.1,17.8-8.1
					c4.3,5,10.7,8.1,17.8,8.1c2.7,0,5.2-0.4,7.6-1.3c0.8-0.3,1.6-0.6,2.3-0.9c3-1.4,5.7-3.4,7.9-5.9c4.3,5,10.7,8.1,17.8,8.1
					s13.5-3.1,17.8-8.1c-0.4,0.4,5,4.3,5.5,4.7c2.2,1.3,4.5,2.3,7,2.9c5.7,1.3,11.8,0.4,16.9-2.5c0.2,2.4,0.3,4.9,0.3,7.3v16.1
					c0,28.9,1.3,57.4-17.8,81.2c-14.5,18-36.5,29.5-59.5,31.5C133.4,265.5,118.6,262.9,105.4,256.4z M117.5,300.6L117.5,300.6l7.3,0
					l-2.3,3.2c-1.4,1.9-1.5,4.4-0.4,6.4l8,14l-4.6,19.8l-30.9-43.3H117.5z M209.7,404.1L209.7,404.1H74.5V303.9
					c2.2-0.7,4.4-1.4,6.7-1.9l48.3,67.7l7.8,11c0.3,0.4,0.6,0.7,0.9,1c1.1,0.9,2.4,1.4,3.8,1.4c0.2,0,0.3,0,0.5,0c0.1,0,0.1,0,0.2,0
					c0.1,0,0.3,0,0.4-0.1c0.1,0,0.2,0,0.3-0.1c0.1,0,0.1,0,0.2-0.1c1.3-0.4,2.4-1.1,3.2-2.2L203,302c2.3,0.5,4.5,1.1,6.7,1.9
					L209.7,404.1L209.7,404.1z M221.4,404.1v-94.8c15.3,9.2,26.4,24.9,29.2,43.2c0,0.1,0,0.2,0,0.3c0.1,1,0.3,1.9,0.4,2.9
					c0,0,0,0,0,0c0.1,0.9,0.2,1.9,0.2,2.8c0,0.2,0,0.4,0,0.6c0,0.9,0.1,1.9,0.1,2.8v42.1H221.4z"/>
			</g>
		</g>
		<g>
			<g>
				<path class="st0" d="M176.6,209.3c-1.9-2.6-5.5-3.2-8.2-1.4c-5.5,3.9-15.6,6.4-26.3,6.4c-10.7,0-20.8-2.4-26.3-6.4
					c-2.6-1.9-6.3-1.3-8.2,1.3c-1.9,2.6-1.3,6.3,1.3,8.2c7.5,5.4,19.9,8.6,33.1,8.6c13.2,0,25.6-3.2,33.1-8.6
					C177.8,215.6,178.4,211.9,176.6,209.3z"/>
			</g>
		</g>
	</g>
	<g>
		<g>
			<g>
				<circle class="st0" cx="320.1" cy="210.8" r="12.1"/>
			</g>
		</g>
		<g>
			<g>
				<circle class="st0" cx="407.8" cy="210.8" r="12.1"/>
			</g>
		</g>
		<g>
			<g>
				<path class="st0" d="M414.3,338.1L414.3,338.1L414.3,338.1h-18.4v-7h10.6c31.5,0,57.1-25.6,57.1-57.1v-15.2
					c15.7-3.9,27.4-18.2,27.4-35.1c0-16.7-11.6-31.1-27.4-35.1V177c0-55-44.7-99.7-99.7-99.7c-55,0-99.7,44.7-99.7,99.7v11.8
					c-15.7,4-27.4,18.4-27.4,35.1c0,16.9,11.7,31.1,27.4,35.1V274c0,31.5,25.6,57.1,57.1,57.1h10.6v7h-18.4
					c-42.3,0-76.7,34.4-76.7,76.7v50.4c0,3.4,2.8,6.2,6.2,6.2h241.9c3.4,0,6.2-2.8,6.2-6.2v-50.4C491,372.5,456.6,338.1,414.3,338.1
					z M463.6,225.5v-23.9c8.8,3.5,15.1,12.3,15.1,22.2c0,10-6.3,18.6-15.1,22.2V225.5z M264.2,225.5v20.4
					c-8.8-3.5-15.1-12.1-15.1-22.2c0-9.9,6.2-18.6,15.1-22.2C264.2,201.6,264.2,225.5,264.2,225.5z M408.2,350.4v5.6
					c0,10.5-8.5,19-19,19c-10.5,0-19-8.5-19-19v-5.6h19.7H408.2z M363.9,338.1h-19.7V325v-1.7c0,0.4,8,1.3,8.8,1.3
					c3.2,0.3,6.3,0.5,9.5,0.6c6.4,0.1,12.7-0.4,19-1.5c0.7-0.1,1.4-0.3,2.2-0.4v1.7v13.2C383.6,338.1,363.9,338.1,363.9,338.1z
					 M451.3,274L451.3,274c0,24.7-20.1,44.8-44.8,44.8h-7.4c0.4-0.1,0.7-0.3,1-0.4c0.2-0.1,0.5-0.2,0.7-0.3
					c10.8-4.3,20.8-10.6,29.5-18.4c4.7-4.2,8.9-8.8,12.7-13.7c3-4,5.8-8.1,8.2-12.5L451.3,274L451.3,274z M276.5,177L276.5,177
					c0-48.2,39.2-87.4,87.4-87.4s87.4,39.2,87.4,87.4v9.3c-31.3-6.9-64.7-24.3-79.8-53.9c-0.1-0.2-0.2-0.5-0.4-0.7
					c-1-2-1.4-3.1-1.4-3.2c-0.9-2.5-3.2-4.1-5.8-4.1c-2.5,0-4.8,1.5-5.7,3.9c0,0.1-0.1,0.2-0.1,0.2c0,0.1-2.2,6.1-8.3,14.3
					c0,0,0,0,0,0.1c-0.2,0.2-0.4,0.5-0.6,0.7c-0.1,0.2-0.3,0.4-0.4,0.5c-0.1,0.1-0.1,0.2-0.2,0.2c-5.2,6.7-12.9,14.7-24,22.1
					c-0.1,0-0.1,0.1-0.2,0.1c-0.5,0.3-1,0.7-1.5,1c-0.4,0.3-0.9,0.6-1.3,0.8c-0.2,0.1-0.4,0.2-0.5,0.3c-14.9,9.2-31,14.5-44.5,17.5
					L276.5,177L276.5,177z M321.3,318.8L321.3,318.8c-24.7,0-44.8-20.1-44.8-44.8v-0.5c2.4,4.3,5.1,8.5,8.2,12.5
					c7.1,9.2,15.8,17.2,25.6,23.5c5.3,3.4,10.9,6.3,16.7,8.6c0.2,0.1,0.5,0.2,0.7,0.3c0.4,0.1,0.7,0.3,1,0.4H321.3z M331.3,306.4
					c-30.3-12.4-52.1-41.7-54.6-74.4c-0.8-11-0.2-22.1-0.2-33.1c0-0.4,17.7-4.5,19.4-5c6.9-2.3,13.7-5,20.2-8.3
					c17.6-8.9,33.9-21.3,45.2-37.7c0.9-1.4,1.8-2.7,2.6-3.9c3.1,4.9,7.5,11,13.8,17.4c0.4,0.4,0.8,0.8,1.2,1.3
					c0.1,0.1,0.3,0.3,0.4,0.4c10.2,9.9,22.5,17.8,35.3,23.9c11.7,5.5,24,9.3,36.6,11.9c0,20,1.4,40.1-6.2,59
					c-6,14.9-16.3,28-29.2,37.6c-14.1,10.5-31.3,16.8-48.9,17.4C354.7,313.3,342.5,311,331.3,306.4z M319.7,350.4h18.4h19.7v5.6
					c0,10.5-8.5,19-19,19s-19-8.5-19-19V350.4z M249.1,459.1v-44.3c0-33.4,25.6-61,58.2-64.1v5.3c0,17.3,14.1,31.3,31.3,31.3
					c10.3,0,19.5-5,25.2-12.7c5.7,7.7,14.9,12.7,25.2,12.7c17.3,0,31.3-14.1,31.3-31.3v-5.3c32.6,3.1,58.2,30.7,58.2,64.1v44.3
					L249.1,459.1L249.1,459.1z"/>
			</g>
		</g>
		<g>
			<g>
				<path class="st0" d="M400.1,254.5c-2-2.8-5.8-3.4-8.6-1.4c-5.8,4.1-16.4,6.7-27.6,6.7c-11.3,0-21.8-2.6-27.6-6.7
					c-2.8-2-6.6-1.3-8.6,1.4c-2,2.8-1.3,6.6,1.4,8.6c7.9,5.6,20.9,9,34.8,9c13.9,0,26.9-3.4,34.8-9
					C401.5,261.1,402.1,257.2,400.1,254.5z"/>
			</g>
		</g>
	</g>
</g>
</svg>
